<?xml version="1.0" encoding="UTF-8"?>
<svg xmlns="http://www.w3.org/2000/svg" xmlns:xlink="http://www.w3.org/1999/xlink" width="75pt" height="74.999997pt" viewBox="0 0 75 74.999997" version="1.2">
<defs>
<clipPath id="clip1">
  <path d="M 61 10.121094 L 70.5625 10.121094 L 70.5625 57 L 61 57 Z M 61 10.121094 "/>
</clipPath>
<clipPath id="clip2">
  <path d="M 4.5625 10.121094 L 23 10.121094 L 23 57 L 4.5625 57 Z M 4.5625 10.121094 "/>
</clipPath>
<clipPath id="clip3">
  <path d="M 4.5625 18 L 70.5625 18 L 70.5625 64.871094 L 4.5625 64.871094 Z M 4.5625 18 "/>
</clipPath>
</defs>
<g id="surface1">
<g clip-path="url(#clip1)" clip-rule="nonzero">
<path style=" stroke:none;fill-rule:nonzero;fill:rgb(95.289612%,30.589294%,0%);fill-opacity:1;" d="M 70.15625 19.097656 L 69.734375 19.097656 L 69.734375 56.160156 C 69.734375 56.273438 69.777344 56.378906 69.855469 56.457031 C 69.933594 56.535156 70.042969 56.582031 70.15625 56.582031 C 70.265625 56.582031 70.375 56.535156 70.453125 56.457031 C 70.53125 56.378906 70.578125 56.273438 70.578125 56.160156 C 70.578125 53.699219 69.585938 51.46875 67.984375 49.855469 C 66.386719 48.242188 64.171875 47.242188 61.726562 47.242188 L 61.726562 47.664062 L 62.148438 47.664062 L 62.148438 10.601562 L 61.726562 10.601562 L 61.726562 11.023438 C 63.9375 11.023438 65.9375 11.925781 67.386719 13.386719 C 68.835938 14.847656 69.734375 16.867188 69.734375 19.097656 L 70.578125 19.097656 C 70.578125 16.640625 69.585938 14.40625 67.984375 12.792969 C 66.386719 11.179688 64.171875 10.179688 61.726562 10.179688 C 61.617188 10.179688 61.507812 10.226562 61.429688 10.304688 C 61.351562 10.382812 61.304688 10.492188 61.304688 10.601562 L 61.304688 47.664062 C 61.304688 47.773438 61.351562 47.882812 61.429688 47.960938 C 61.507812 48.039062 61.617188 48.085938 61.726562 48.085938 C 63.9375 48.085938 65.9375 48.984375 67.386719 50.449219 C 68.835938 51.910156 69.734375 53.929688 69.734375 56.160156 C 69.734375 56.273438 69.777344 56.378906 69.855469 56.457031 C 69.933594 56.535156 70.042969 56.582031 70.15625 56.582031 C 70.265625 56.582031 70.375 56.535156 70.453125 56.457031 C 70.53125 56.378906 70.578125 56.273438 70.578125 56.160156 L 70.578125 19.097656 L 70.15625 19.097656 "/>
</g>
<g clip-path="url(#clip2)" clip-rule="nonzero">
<path style=" stroke:none;fill-rule:nonzero;fill:rgb(95.289612%,30.589294%,0%);fill-opacity:1;" d="M 13.476562 10.601562 L 13.054688 10.601562 L 13.476562 10.601562 L 13.488281 10.179688 L 13.421875 10.179688 C 10.976562 10.179688 8.761719 11.179688 7.164062 12.792969 C 5.5625 14.40625 4.570312 16.640625 4.570312 19.097656 L 4.570312 56.160156 C 4.570312 56.273438 4.617188 56.378906 4.695312 56.457031 C 4.773438 56.535156 4.882812 56.582031 4.992188 56.582031 C 5.105469 56.582031 5.214844 56.535156 5.292969 56.457031 C 5.371094 56.378906 5.414062 56.273438 5.414062 56.160156 C 5.414062 53.929688 6.3125 51.910156 7.761719 50.449219 C 9.210938 48.984375 11.210938 48.085938 13.421875 48.085938 C 15.59375 48.085938 17.558594 48.957031 19 50.371094 C 19.125 50.492188 19.304688 50.527344 19.460938 50.460938 C 19.617188 50.394531 19.71875 50.242188 19.71875 50.070312 L 19.71875 50.019531 L 19.296875 50.019531 L 19.003906 50.320312 C 20.53125 51.792969 21.484375 53.863281 21.484375 56.160156 C 21.484375 56.273438 21.527344 56.378906 21.605469 56.457031 C 21.6875 56.535156 21.792969 56.582031 21.90625 56.582031 C 22.015625 56.582031 22.125 56.535156 22.203125 56.457031 C 22.28125 56.378906 22.328125 56.273438 22.328125 56.160156 L 22.328125 19.097656 C 22.328125 16.640625 21.335938 14.40625 19.738281 12.792969 C 18.136719 11.179688 15.921875 10.179688 13.476562 10.179688 C 13.367188 10.179688 13.257812 10.226562 13.179688 10.304688 C 13.101562 10.382812 13.054688 10.492188 13.054688 10.601562 L 13.476562 10.601562 L 13.476562 11.023438 C 15.6875 11.023438 17.6875 11.925781 19.136719 13.386719 C 20.585938 14.847656 21.484375 16.867188 21.484375 19.097656 L 21.484375 56.160156 C 21.484375 56.273438 21.527344 56.378906 21.605469 56.457031 C 21.6875 56.535156 21.792969 56.582031 21.90625 56.582031 C 22.015625 56.582031 22.125 56.535156 22.203125 56.457031 C 22.28125 56.378906 22.328125 56.273438 22.328125 56.160156 C 22.328125 53.625 21.277344 51.335938 19.589844 49.714844 C 19.46875 49.597656 19.289062 49.5625 19.132812 49.628906 C 18.976562 49.695312 18.875 49.847656 18.875 50.019531 L 18.875 50.070312 L 19.296875 50.070312 L 19.59375 49.769531 C 18 48.207031 15.824219 47.242188 13.421875 47.242188 C 10.976562 47.242188 8.761719 48.242188 7.164062 49.855469 C 5.5625 51.46875 4.570312 53.699219 4.570312 56.160156 C 4.570312 56.273438 4.617188 56.378906 4.695312 56.457031 C 4.773438 56.535156 4.882812 56.582031 4.992188 56.582031 C 5.105469 56.582031 5.214844 56.535156 5.292969 56.457031 C 5.371094 56.378906 5.414062 56.273438 5.414062 56.160156 L 5.414062 19.097656 C 5.414062 16.867188 6.3125 14.847656 7.761719 13.386719 C 9.210938 11.925781 11.210938 11.023438 13.421875 11.023438 L 13.421875 10.601562 L 13.410156 11.023438 L 13.46875 11.023438 C 13.582031 11.027344 13.691406 10.984375 13.773438 10.902344 C 13.855469 10.824219 13.898438 10.71875 13.898438 10.601562 L 13.476562 10.601562 L 13.476562 11.023438 L 13.476562 10.601562 "/>
</g>
<g clip-path="url(#clip3)" clip-rule="nonzero">
<path style=" stroke:none;fill-rule:nonzero;fill:rgb(95.289612%,30.589294%,0%);fill-opacity:1;" d="M 61.726562 47.75 L 62.148438 47.75 L 62.148438 19.417969 C 62.148438 19.1875 61.960938 18.996094 61.726562 18.996094 L 21.90625 18.996094 C 21.792969 18.996094 21.6875 19.042969 21.605469 19.121094 C 21.527344 19.199219 21.484375 19.308594 21.484375 19.417969 L 21.484375 55.902344 L 21.90625 55.902344 L 21.484375 55.894531 L 21.484375 55.910156 L 21.675781 55.917969 L 21.484375 55.902344 L 21.484375 55.910156 L 21.675781 55.917969 L 21.484375 55.902344 L 21.867188 55.933594 L 21.488281 55.875 L 21.484375 55.902344 L 21.867188 55.933594 L 21.488281 55.875 L 21.898438 55.9375 L 21.5 55.820312 C 21.488281 55.855469 21.488281 55.867188 21.488281 55.875 L 21.898438 55.9375 L 21.5 55.820312 L 21.902344 55.9375 L 21.542969 55.722656 C 21.511719 55.777344 21.507812 55.800781 21.5 55.820312 L 21.902344 55.9375 L 21.542969 55.722656 L 21.902344 55.941406 L 21.632812 55.617188 C 21.582031 55.660156 21.558594 55.699219 21.542969 55.722656 L 21.902344 55.941406 L 21.632812 55.617188 L 21.902344 55.941406 L 21.738281 55.550781 C 21.695312 55.570312 21.660156 55.59375 21.632812 55.617188 L 21.902344 55.941406 L 21.738281 55.550781 L 21.902344 55.941406 L 21.902344 55.519531 C 21.84375 55.519531 21.785156 55.53125 21.738281 55.550781 L 21.902344 55.941406 L 21.902344 55.519531 L 21.902344 55.9375 L 22.113281 55.574219 C 22.058594 55.542969 21.984375 55.519531 21.902344 55.519531 L 21.902344 55.9375 L 22.113281 55.574219 L 21.902344 55.941406 L 22.21875 55.660156 C 22.195312 55.632812 22.164062 55.601562 22.113281 55.574219 L 21.902344 55.941406 L 22.21875 55.660156 L 21.902344 55.9375 L 22.289062 55.769531 C 22.277344 55.746094 22.265625 55.710938 22.21875 55.660156 L 21.902344 55.9375 L 22.289062 55.769531 L 21.90625 55.9375 L 22.316406 55.847656 C 22.3125 55.832031 22.308594 55.8125 22.289062 55.769531 L 21.90625 55.9375 L 22.316406 55.847656 L 21.914062 55.9375 L 22.324219 55.890625 C 22.320312 55.882812 22.320312 55.875 22.316406 55.847656 L 21.914062 55.9375 L 22.324219 55.890625 L 21.980469 55.929688 L 22.324219 55.910156 L 22.324219 55.890625 L 21.980469 55.929688 L 22.324219 55.910156 L 22.324219 55.890625 C 22.25 53.464844 21.214844 51.277344 19.589844 49.714844 C 19.46875 49.597656 19.289062 49.5625 19.132812 49.628906 C 18.976562 49.695312 18.875 49.847656 18.875 50.019531 L 18.875 50.070312 L 19.296875 50.070312 L 19.59375 49.769531 C 18 48.207031 15.824219 47.242188 13.421875 47.242188 C 13.308594 47.242188 13.203125 47.285156 13.125 47.363281 C 13.042969 47.445312 13 47.550781 13 47.664062 L 13 47.75 L 13.421875 47.75 L 13.421875 47.328125 C 8.566406 47.328125 4.625 51.230469 4.574219 56.066406 L 4.574219 56.074219 C 4.625 60.910156 8.566406 64.8125 13.421875 64.8125 L 61.726562 64.8125 C 66.582031 64.8125 70.523438 60.910156 70.574219 56.074219 L 70.574219 56.066406 C 70.523438 51.230469 66.582031 47.328125 61.726562 47.328125 L 61.726562 47.75 L 62.148438 47.75 L 61.726562 47.75 L 61.726562 48.167969 C 66.121094 48.167969 69.683594 51.699219 69.730469 56.074219 L 70.152344 56.070312 L 69.730469 56.066406 C 69.683594 60.4375 66.121094 63.96875 61.726562 63.96875 L 13.421875 63.96875 C 9.027344 63.96875 5.464844 60.4375 5.417969 56.066406 L 4.996094 56.070312 L 5.417969 56.074219 C 5.464844 51.699219 9.027344 48.167969 13.421875 48.167969 C 13.535156 48.167969 13.640625 48.125 13.71875 48.046875 C 13.800781 47.964844 13.84375 47.859375 13.84375 47.75 L 13.84375 47.664062 L 13.421875 47.664062 L 13.421875 48.085938 C 15.59375 48.085938 17.558594 48.957031 19 50.371094 C 19.125 50.492188 19.304688 50.527344 19.460938 50.460938 C 19.617188 50.394531 19.71875 50.242188 19.71875 50.070312 L 19.71875 50.019531 L 19.296875 50.019531 L 19.003906 50.320312 C 20.476562 51.738281 21.414062 53.714844 21.480469 55.914062 L 21.902344 55.902344 L 21.480469 55.910156 L 21.480469 55.953125 L 21.484375 55.984375 C 21.484375 55.992188 21.484375 56 21.492188 56.027344 C 21.496094 56.042969 21.496094 56.0625 21.515625 56.109375 C 21.527344 56.132812 21.542969 56.164062 21.585938 56.21875 C 21.609375 56.246094 21.644531 56.277344 21.695312 56.304688 C 21.746094 56.335938 21.824219 56.363281 21.902344 56.359375 C 21.984375 56.363281 22.058594 56.335938 22.109375 56.308594 C 22.210938 56.246094 22.242188 56.191406 22.265625 56.15625 C 22.285156 56.121094 22.292969 56.101562 22.300781 56.085938 C 22.3125 56.050781 22.316406 56.035156 22.316406 56.023438 C 22.320312 56.003906 22.324219 55.992188 22.324219 55.984375 C 22.324219 55.960938 22.324219 55.957031 22.328125 55.949219 C 22.328125 55.925781 22.328125 55.910156 22.328125 55.910156 L 22.328125 19.839844 L 61.304688 19.839844 L 61.304688 47.75 C 61.304688 47.859375 61.351562 47.96875 61.429688 48.046875 C 61.507812 48.125 61.617188 48.167969 61.726562 48.167969 L 61.726562 47.75 "/>
</g>
<path style=" stroke:none;fill-rule:nonzero;fill:rgb(95.289612%,30.589294%,0%);fill-opacity:1;" d="M 19.296875 50.019531 L 18.875 50.019531 L 18.875 50.070312 L 19.296875 50.070312 L 19.59375 49.769531 C 18 48.207031 15.824219 47.242188 13.421875 47.242188 C 13.003906 47.242188 12.59375 47.269531 12.195312 47.328125 C 11.984375 47.355469 11.828125 47.535156 11.828125 47.742188 L 11.828125 62.183594 C 11.828125 62.355469 11.933594 62.511719 12.09375 62.574219 C 12.949219 62.921875 13.882812 63.113281 14.859375 63.113281 C 14.972656 63.113281 15.078125 63.070312 15.15625 62.992188 C 15.238281 62.910156 15.28125 62.804688 15.28125 62.691406 L 14.859375 62.691406 L 14.851562 63.113281 L 14.90625 63.113281 C 16.90625 63.113281 18.730469 62.3125 20.0625 61.015625 C 21.394531 59.714844 22.246094 57.914062 22.320312 55.917969 L 22.320312 55.890625 C 22.25 53.464844 21.214844 51.28125 19.589844 49.714844 C 19.46875 49.597656 19.289062 49.5625 19.132812 49.628906 C 18.976562 49.695312 18.875 49.847656 18.875 50.019531 L 19.296875 50.019531 L 19.003906 50.320312 C 20.476562 51.738281 21.410156 53.714844 21.476562 55.914062 L 21.898438 55.902344 L 21.476562 55.886719 C 21.410156 57.664062 20.65625 59.257812 19.472656 60.410156 C 18.289062 61.5625 16.679688 62.269531 14.90625 62.269531 L 14.90625 62.691406 L 14.914062 62.269531 L 14.867188 62.269531 C 14.753906 62.269531 14.644531 62.3125 14.5625 62.390625 C 14.484375 62.46875 14.4375 62.578125 14.4375 62.691406 L 14.859375 62.691406 L 14.859375 62.269531 C 13.992188 62.269531 13.167969 62.101562 12.410156 61.792969 L 12.253906 62.183594 L 12.675781 62.183594 L 12.675781 47.742188 L 12.253906 47.742188 L 12.3125 48.160156 C 12.675781 48.109375 13.042969 48.085938 13.421875 48.085938 C 15.59375 48.085938 17.558594 48.957031 19 50.371094 C 19.125 50.492188 19.304688 50.527344 19.460938 50.460938 C 19.617188 50.394531 19.71875 50.242188 19.71875 50.070312 L 19.71875 50.019531 L 19.296875 50.019531 L 19.003906 50.320312 L 19.296875 50.019531 "/>
<path style=" stroke:none;fill-rule:nonzero;fill:rgb(95.289612%,30.589294%,0%);fill-opacity:1;" d="M 21.445312 58.605469 L 59.417969 58.605469 C 59.546875 58.605469 59.648438 58.5 59.648438 58.371094 C 59.648438 58.246094 59.546875 58.140625 59.417969 58.140625 L 21.445312 58.140625 C 21.316406 58.140625 21.210938 58.246094 21.210938 58.371094 C 21.210938 58.5 21.316406 58.605469 21.445312 58.605469 "/>
<path style=" stroke:none;fill-rule:nonzero;fill:rgb(95.289612%,30.589294%,0%);fill-opacity:1;" d="M 21.90625 45.613281 L 59.417969 45.613281 C 59.546875 45.613281 59.648438 45.511719 59.648438 45.382812 C 59.648438 45.253906 59.546875 45.152344 59.417969 45.152344 L 21.90625 45.152344 C 21.777344 45.152344 21.675781 45.253906 21.675781 45.382812 C 21.675781 45.511719 21.777344 45.613281 21.90625 45.613281 "/>
<path style=" stroke:none;fill-rule:nonzero;fill:rgb(95.289612%,30.589294%,0%);fill-opacity:1;" d="M 21.90625 42.9375 L 59.417969 42.9375 C 59.546875 42.9375 59.648438 42.835938 59.648438 42.707031 C 59.648438 42.578125 59.546875 42.476562 59.417969 42.476562 L 21.90625 42.476562 C 21.777344 42.476562 21.675781 42.578125 21.675781 42.707031 C 21.675781 42.835938 21.777344 42.9375 21.90625 42.9375 "/>
<path style=" stroke:none;fill-rule:nonzero;fill:rgb(95.289612%,30.589294%,0%);fill-opacity:1;" d="M 21.90625 35.914062 L 59.417969 35.914062 C 59.546875 35.914062 59.648438 35.8125 59.648438 35.683594 C 59.648438 35.554688 59.546875 35.453125 59.417969 35.453125 L 21.90625 35.453125 C 21.777344 35.453125 21.675781 35.554688 21.675781 35.683594 C 21.675781 35.8125 21.777344 35.914062 21.90625 35.914062 "/>
<path style=" stroke:none;fill-rule:nonzero;fill:rgb(95.289612%,30.589294%,0%);fill-opacity:1;" d="M 21.90625 54.273438 L 59.417969 54.273438 C 59.546875 54.273438 59.648438 54.167969 59.648438 54.039062 C 59.648438 53.914062 59.546875 53.808594 59.417969 53.808594 L 21.90625 53.808594 C 21.777344 53.808594 21.675781 53.914062 21.675781 54.039062 C 21.675781 54.167969 21.777344 54.273438 21.90625 54.273438 "/>
<path style=" stroke:none;fill-rule:nonzero;fill:rgb(95.289612%,30.589294%,0%);fill-opacity:1;" d="M 21.90625 48.695312 L 59.417969 48.695312 C 59.546875 48.695312 59.648438 48.589844 59.648438 48.460938 C 59.648438 48.335938 59.546875 48.230469 59.417969 48.230469 L 21.90625 48.230469 C 21.777344 48.230469 21.675781 48.335938 21.675781 48.460938 C 21.675781 48.589844 21.777344 48.695312 21.90625 48.695312 "/>
<path style=" stroke:none;fill-rule:nonzero;fill:rgb(95.289612%,30.589294%,0%);fill-opacity:1;" d="M 21.90625 51.773438 L 59.417969 51.773438 C 59.546875 51.773438 59.648438 51.671875 59.648438 51.542969 C 59.648438 51.414062 59.546875 51.3125 59.417969 51.3125 L 21.90625 51.3125 C 21.777344 51.3125 21.675781 51.414062 21.675781 51.542969 C 21.675781 51.671875 21.777344 51.773438 21.90625 51.773438 "/>
<path style=" stroke:none;fill-rule:nonzero;fill:rgb(95.289612%,30.589294%,0%);fill-opacity:1;" d="M 21.90625 25.476562 L 59.417969 25.476562 C 59.546875 25.476562 59.648438 25.371094 59.648438 25.242188 C 59.648438 25.117188 59.546875 25.011719 59.417969 25.011719 L 21.90625 25.011719 C 21.777344 25.011719 21.675781 25.117188 21.675781 25.242188 C 21.675781 25.371094 21.777344 25.476562 21.90625 25.476562 "/>
<path style=" stroke:none;fill-rule:nonzero;fill:rgb(95.289612%,30.589294%,0%);fill-opacity:1;" d="M 54.289062 61.140625 L 54.289062 22.238281 C 54.289062 22.109375 54.1875 22.007812 54.058594 22.007812 C 53.929688 22.007812 53.824219 22.109375 53.824219 22.238281 L 53.824219 61.140625 C 53.824219 61.265625 53.929688 61.371094 54.058594 61.371094 C 54.1875 61.371094 54.289062 61.265625 54.289062 61.140625 "/>
<path style=" stroke:none;fill-rule:nonzero;fill:rgb(95.289612%,30.589294%,0%);fill-opacity:1;" d="M 27.898438 61.140625 L 27.898438 22.238281 C 27.898438 22.109375 27.796875 22.007812 27.667969 22.007812 C 27.539062 22.007812 27.4375 22.109375 27.4375 22.238281 L 27.4375 61.140625 C 27.4375 61.265625 27.539062 61.371094 27.667969 61.371094 C 27.796875 61.371094 27.898438 61.265625 27.898438 61.140625 "/>
<path style=" stroke:none;fill-rule:nonzero;fill:rgb(95.289612%,30.589294%,0%);fill-opacity:1;" d="M 33.285156 61.140625 L 33.285156 22.238281 C 33.285156 22.109375 33.179688 22.007812 33.054688 22.007812 C 32.925781 22.007812 32.820312 22.109375 32.820312 22.238281 L 32.820312 61.140625 C 32.820312 61.265625 32.925781 61.371094 33.054688 61.371094 C 33.179688 61.371094 33.285156 61.265625 33.285156 61.140625 "/>
<path style=" stroke:none;fill-rule:nonzero;fill:rgb(95.289612%,30.589294%,0%);fill-opacity:1;" d="M 49.125 61.140625 L 49.125 22.238281 C 49.125 22.109375 49.019531 22.007812 48.890625 22.007812 C 48.761719 22.007812 48.660156 22.109375 48.660156 22.238281 L 48.660156 61.140625 C 48.660156 61.265625 48.761719 61.371094 48.890625 61.371094 C 49.019531 61.371094 49.125 61.265625 49.125 61.140625 "/>
<path style=" stroke:none;fill-rule:nonzero;fill:rgb(95.289612%,30.589294%,0%);fill-opacity:1;" d="M 25.800781 42.988281 L 41.375 25.523438 C 41.53125 25.351562 41.515625 25.082031 41.34375 24.929688 C 41.167969 24.773438 40.902344 24.789062 40.746094 24.964844 L 25.167969 42.429688 C 25.015625 42.601562 25.027344 42.867188 25.203125 43.023438 C 25.378906 43.175781 25.644531 43.160156 25.800781 42.988281 "/>
<path style=" stroke:none;fill-rule:nonzero;fill:rgb(95.289612%,30.589294%,0%);fill-opacity:1;" d="M 56.8125 42.429688 L 41.378906 24.964844 C 41.222656 24.789062 40.957031 24.773438 40.78125 24.929688 C 40.605469 25.082031 40.589844 25.347656 40.746094 25.523438 L 56.179688 42.988281 C 56.332031 43.160156 56.597656 43.179688 56.773438 43.023438 C 56.949219 42.871094 56.964844 42.605469 56.8125 42.429688 "/>
<path style=" stroke:none;fill-rule:nonzero;fill:rgb(95.289612%,30.589294%,0%);fill-opacity:1;" d="M 29.792969 42.988281 L 41.304688 30.082031 C 41.460938 29.90625 41.445312 29.640625 41.269531 29.488281 C 41.09375 29.332031 40.828125 29.347656 40.671875 29.519531 L 29.160156 42.429688 C 29.007812 42.601562 29.023438 42.867188 29.195312 43.023438 C 29.371094 43.175781 29.636719 43.160156 29.792969 42.988281 "/>
<path style=" stroke:none;fill-rule:nonzero;fill:rgb(95.289612%,30.589294%,0%);fill-opacity:1;" d="M 52.816406 42.429688 L 41.304688 29.519531 C 41.148438 29.347656 40.882812 29.332031 40.707031 29.488281 C 40.535156 29.640625 40.519531 29.90625 40.671875 30.082031 L 52.1875 42.988281 C 52.339844 43.160156 52.609375 43.175781 52.78125 43.023438 C 52.957031 42.867188 52.972656 42.601562 52.816406 42.429688 "/>
<path style=" stroke:none;fill-rule:nonzero;fill:rgb(95.289612%,30.589294%,0%);fill-opacity:1;" d="M 27.667969 58.792969 L 54.058594 58.792969 C 54.289062 58.792969 54.480469 58.605469 54.480469 58.371094 C 54.480469 58.140625 54.289062 57.953125 54.058594 57.953125 L 27.667969 57.953125 C 27.433594 57.953125 27.246094 58.140625 27.246094 58.371094 C 27.246094 58.605469 27.433594 58.792969 27.667969 58.792969 "/>
<path style=" stroke:none;fill-rule:nonzero;fill:rgb(95.289612%,30.589294%,0%);fill-opacity:1;" d="M 54.480469 58.371094 L 54.480469 42.707031 C 54.480469 42.476562 54.289062 42.285156 54.058594 42.285156 C 53.824219 42.285156 53.636719 42.476562 53.636719 42.707031 L 53.636719 58.371094 C 53.636719 58.605469 53.824219 58.792969 54.058594 58.792969 C 54.289062 58.792969 54.480469 58.605469 54.480469 58.371094 "/>
<path style=" stroke:none;fill-rule:nonzero;fill:rgb(95.289612%,30.589294%,0%);fill-opacity:1;" d="M 28.089844 58.371094 L 28.089844 42.707031 C 28.089844 42.476562 27.902344 42.285156 27.667969 42.285156 C 27.433594 42.285156 27.246094 42.476562 27.246094 42.707031 L 27.246094 58.371094 C 27.246094 58.605469 27.433594 58.792969 27.667969 58.792969 C 27.902344 58.792969 28.089844 58.605469 28.089844 58.371094 "/>
<path style=" stroke:none;fill-rule:nonzero;fill:rgb(95.289612%,30.589294%,0%);fill-opacity:1;" d="M 52.5 43.128906 L 56.496094 43.128906 C 56.726562 43.128906 56.914062 42.941406 56.914062 42.707031 C 56.914062 42.476562 56.726562 42.285156 56.496094 42.285156 L 52.5 42.285156 C 52.269531 42.285156 52.078125 42.476562 52.078125 42.707031 C 52.078125 42.941406 52.269531 43.128906 52.5 43.128906 "/>
<path style=" stroke:none;fill-rule:nonzero;fill:rgb(95.289612%,30.589294%,0%);fill-opacity:1;" d="M 25.484375 43.128906 L 29.476562 43.128906 C 29.710938 43.128906 29.898438 42.941406 29.898438 42.707031 C 29.898438 42.476562 29.710938 42.285156 29.476562 42.285156 L 25.484375 42.285156 C 25.25 42.285156 25.0625 42.476562 25.0625 42.707031 C 25.0625 42.941406 25.25 43.128906 25.484375 43.128906 "/>
<path style=" stroke:none;fill-rule:nonzero;fill:rgb(95.289612%,30.589294%,0%);fill-opacity:1;" d="M 43.957031 58.371094 L 44.378906 58.371094 L 44.378906 52.6875 C 44.378906 50.808594 42.851562 49.289062 40.972656 49.289062 C 39.089844 49.289062 37.566406 50.808594 37.566406 52.6875 L 37.566406 58.371094 C 37.566406 58.484375 37.613281 58.59375 37.691406 58.671875 C 37.769531 58.75 37.878906 58.792969 37.988281 58.792969 L 43.957031 58.792969 C 44.070312 58.792969 44.175781 58.75 44.253906 58.671875 C 44.332031 58.589844 44.378906 58.484375 44.378906 58.371094 L 43.957031 58.371094 L 43.957031 57.953125 L 38.410156 57.953125 L 38.410156 52.6875 C 38.410156 51.980469 38.699219 51.34375 39.160156 50.878906 C 39.625 50.417969 40.265625 50.128906 40.972656 50.128906 C 41.679688 50.128906 42.320312 50.417969 42.785156 50.878906 C 43.246094 51.34375 43.53125 51.980469 43.53125 52.6875 L 43.53125 58.371094 L 43.957031 58.371094 L 43.957031 57.953125 L 43.957031 58.371094 "/>
<path style=" stroke:none;fill-rule:nonzero;fill:rgb(95.289612%,30.589294%,0%);fill-opacity:1;" d="M 51.449219 51.542969 L 51.449219 51.121094 L 46.753906 51.121094 L 46.753906 45.804688 L 51.027344 45.804688 L 51.027344 51.542969 L 51.449219 51.542969 L 51.449219 51.121094 L 51.449219 51.542969 L 51.871094 51.542969 L 51.871094 45.382812 C 51.871094 45.273438 51.828125 45.164062 51.75 45.085938 C 51.671875 45.007812 51.5625 44.960938 51.449219 44.960938 L 46.332031 44.960938 C 46.222656 44.960938 46.113281 45.007812 46.035156 45.085938 C 45.957031 45.164062 45.910156 45.273438 45.910156 45.382812 L 45.910156 51.542969 C 45.910156 51.652344 45.957031 51.761719 46.035156 51.839844 C 46.113281 51.917969 46.222656 51.964844 46.332031 51.964844 L 51.449219 51.964844 C 51.5625 51.964844 51.667969 51.917969 51.75 51.839844 C 51.828125 51.761719 51.871094 51.65625 51.871094 51.542969 L 51.449219 51.542969 "/>
<path style=" stroke:none;fill-rule:nonzero;fill:rgb(95.289612%,30.589294%,0%);fill-opacity:1;" d="M 35.613281 51.542969 L 35.613281 51.121094 L 30.917969 51.121094 L 30.917969 45.804688 L 35.1875 45.804688 L 35.1875 51.542969 L 35.613281 51.542969 L 35.613281 51.121094 L 35.613281 51.542969 L 36.035156 51.542969 L 36.035156 45.382812 C 36.035156 45.273438 35.988281 45.164062 35.910156 45.085938 C 35.832031 45.007812 35.722656 44.960938 35.613281 44.960938 L 30.496094 44.960938 C 30.382812 44.960938 30.273438 45.007812 30.195312 45.085938 C 30.117188 45.164062 30.074219 45.273438 30.074219 45.382812 L 30.074219 51.542969 C 30.074219 51.652344 30.117188 51.761719 30.195312 51.839844 C 30.273438 51.917969 30.382812 51.964844 30.496094 51.964844 L 35.613281 51.964844 C 35.726562 51.964844 35.832031 51.917969 35.910156 51.839844 C 35.988281 51.761719 36.035156 51.65625 36.035156 51.542969 L 35.613281 51.542969 "/>
<path style=" stroke:none;fill-rule:nonzero;fill:rgb(95.289612%,30.589294%,0%);fill-opacity:1;" d="M 44.582031 39.195312 L 44.160156 39.195312 C 44.160156 40.050781 43.8125 40.820312 43.25 41.382812 C 42.691406 41.941406 41.917969 42.285156 41.0625 42.285156 C 40.203125 42.285156 39.433594 41.941406 38.871094 41.382812 C 38.308594 40.820312 37.964844 40.050781 37.964844 39.195312 C 37.964844 38.339844 38.308594 37.570312 38.871094 37.007812 C 39.433594 36.449219 40.203125 36.105469 41.0625 36.105469 C 41.917969 36.105469 42.691406 36.449219 43.25 37.007812 C 43.8125 37.570312 44.160156 38.339844 44.160156 39.195312 L 45.003906 39.195312 C 45.003906 37.023438 43.238281 35.261719 41.0625 35.261719 C 38.882812 35.261719 37.121094 37.023438 37.121094 39.195312 C 37.121094 41.367188 38.882812 43.128906 41.0625 43.128906 C 43.238281 43.128906 45.003906 41.367188 45.003906 39.195312 L 44.582031 39.195312 "/>
<path style=" stroke:none;fill-rule:nonzero;fill:rgb(95.289612%,30.589294%,0%);fill-opacity:1;" d="M 43.132812 39.195312 L 42.707031 39.195312 C 42.707031 39.652344 42.523438 40.058594 42.226562 40.359375 C 41.925781 40.65625 41.519531 40.839844 41.0625 40.839844 C 40.605469 40.839844 40.195312 40.65625 39.894531 40.355469 C 39.597656 40.058594 39.414062 39.652344 39.414062 39.195312 C 39.414062 38.742188 39.597656 38.332031 39.894531 38.03125 C 40.195312 37.734375 40.605469 37.550781 41.0625 37.550781 C 41.519531 37.550781 41.925781 37.734375 42.226562 38.03125 C 42.523438 38.332031 42.707031 38.742188 42.707031 39.195312 L 43.550781 39.195312 C 43.550781 37.824219 42.4375 36.710938 41.0625 36.707031 C 39.683594 36.710938 38.570312 37.820312 38.570312 39.195312 C 38.570312 40.570312 39.683594 41.683594 41.0625 41.683594 C 42.4375 41.683594 43.550781 40.570312 43.550781 39.195312 L 43.132812 39.195312 "/>
<path style=" stroke:none;fill-rule:nonzero;fill:rgb(95.289612%,30.589294%,0%);fill-opacity:1;" d="M 40.640625 37.128906 L 40.640625 41.261719 C 40.640625 41.492188 40.828125 41.683594 41.0625 41.683594 C 41.292969 41.683594 41.484375 41.492188 41.484375 41.261719 L 41.484375 37.128906 C 41.484375 36.898438 41.292969 36.707031 41.0625 36.707031 C 40.828125 36.707031 40.640625 36.898438 40.640625 37.128906 "/>
<path style=" stroke:none;fill-rule:nonzero;fill:rgb(95.289612%,30.589294%,0%);fill-opacity:1;" d="M 43.132812 38.773438 L 38.992188 38.773438 C 38.757812 38.773438 38.570312 38.960938 38.570312 39.195312 C 38.570312 39.425781 38.757812 39.617188 38.992188 39.617188 L 43.132812 39.617188 C 43.363281 39.617188 43.550781 39.425781 43.550781 39.195312 C 43.550781 38.960938 43.363281 38.773438 43.132812 38.773438 "/>
<path style=" stroke:none;fill-rule:nonzero;fill:rgb(95.289612%,30.589294%,0%);fill-opacity:1;" d="M 32.628906 45.382812 L 32.628906 51.542969 C 32.628906 51.773438 32.820312 51.964844 33.054688 51.964844 C 33.285156 51.964844 33.476562 51.773438 33.476562 51.542969 L 33.476562 45.382812 C 33.476562 45.152344 33.285156 44.960938 33.054688 44.960938 C 32.820312 44.960938 32.628906 45.152344 32.628906 45.382812 "/>
<path style=" stroke:none;fill-rule:nonzero;fill:rgb(95.289612%,30.589294%,0%);fill-opacity:1;" d="M 30.496094 48.882812 L 35.613281 48.882812 C 35.84375 48.882812 36.035156 48.695312 36.035156 48.460938 C 36.035156 48.230469 35.84375 48.039062 35.613281 48.039062 L 30.496094 48.039062 C 30.261719 48.039062 30.074219 48.230469 30.074219 48.460938 C 30.074219 48.695312 30.261719 48.882812 30.496094 48.882812 "/>
<path style=" stroke:none;fill-rule:nonzero;fill:rgb(95.289612%,30.589294%,0%);fill-opacity:1;" d="M 48.46875 45.382812 L 48.46875 51.542969 C 48.46875 51.773438 48.660156 51.964844 48.890625 51.964844 C 49.125 51.964844 49.3125 51.773438 49.3125 51.542969 L 49.3125 45.382812 C 49.3125 45.152344 49.125 44.960938 48.890625 44.960938 C 48.660156 44.960938 48.46875 45.152344 48.46875 45.382812 "/>
<path style=" stroke:none;fill-rule:nonzero;fill:rgb(95.289612%,30.589294%,0%);fill-opacity:1;" d="M 46.332031 48.882812 L 51.449219 48.882812 C 51.683594 48.882812 51.871094 48.695312 51.871094 48.460938 C 51.871094 48.230469 51.683594 48.039062 51.449219 48.039062 L 46.332031 48.039062 C 46.101562 48.039062 45.910156 48.230469 45.910156 48.460938 C 45.910156 48.695312 46.101562 48.882812 46.332031 48.882812 "/>
<path style=" stroke:none;fill-rule:nonzero;fill:rgb(95.289612%,30.589294%,0%);fill-opacity:1;" d="M 39.667969 55.203125 L 39.242188 55.203125 L 39.351562 55.203125 L 39.351562 55.089844 C 39.292969 55.09375 39.242188 55.140625 39.242188 55.203125 L 39.351562 55.203125 L 39.351562 55.089844 L 39.351562 55.203125 L 39.460938 55.203125 C 39.460938 55.140625 39.414062 55.089844 39.351562 55.089844 L 39.351562 55.203125 L 39.460938 55.203125 L 39.351562 55.203125 L 39.351562 55.3125 C 39.414062 55.3125 39.460938 55.261719 39.460938 55.203125 L 39.351562 55.203125 L 39.351562 55.3125 L 39.351562 55.203125 L 39.242188 55.203125 C 39.242188 55.261719 39.292969 55.3125 39.351562 55.3125 L 39.351562 55.203125 L 39.242188 55.203125 L 40.089844 55.203125 C 40.089844 54.796875 39.757812 54.46875 39.351562 54.46875 C 39.152344 54.46875 38.964844 54.550781 38.832031 54.683594 C 38.699219 54.8125 38.617188 55 38.617188 55.203125 C 38.617188 55.605469 38.949219 55.933594 39.351562 55.933594 C 39.757812 55.933594 40.085938 55.609375 40.089844 55.203125 L 39.667969 55.203125 "/>
</g>
</svg>
