<?xml version="1.0" encoding="UTF-8"?>
<svg xmlns="http://www.w3.org/2000/svg" xmlns:xlink="http://www.w3.org/1999/xlink" width="75pt" height="74.999997pt" viewBox="0 0 75 74.999997" version="1.2">
<defs>
<clipPath id="clip1">
  <path d="M 2 7.5 L 73.246094 7.5 L 73.246094 43 L 2 43 Z M 2 7.5 "/>
</clipPath>
<clipPath id="clip2">
  <path d="M 9 16 L 66 16 L 66 67.5 L 9 67.5 Z M 9 16 "/>
</clipPath>
</defs>
<g id="surface1">
<path style=" stroke:none;fill-rule:nonzero;fill:rgb(100%,100%,100%);fill-opacity:1;" d="M 70.058594 42.199219 C 69.4375 42.199219 68.808594 41.980469 68.308594 41.53125 L 37.523438 14.171875 L 6.921875 41.527344 C 5.839844 42.492188 4.175781 42.40625 3.203125 41.324219 C 2.238281 40.246094 2.324219 38.589844 3.410156 37.621094 L 35.761719 8.703125 C 36.757812 7.808594 38.269531 7.808594 39.269531 8.695312 L 71.808594 37.621094 C 72.894531 38.582031 72.988281 40.238281 72.023438 41.324219 C 71.503906 41.902344 70.78125 42.199219 70.058594 42.199219 "/>
<g clip-path="url(#clip1)" clip-rule="nonzero">
<path style=" stroke:none;fill-rule:nonzero;fill:rgb(95.289612%,30.589294%,0%);fill-opacity:1;" d="M 70.058594 42.199219 L 70.058594 41.667969 C 69.558594 41.667969 69.0625 41.496094 68.664062 41.136719 L 68.660156 41.136719 L 37.875 13.777344 C 37.675781 13.597656 37.371094 13.597656 37.167969 13.777344 L 6.566406 41.132812 C 6.164062 41.492188 5.664062 41.667969 5.164062 41.667969 C 4.585938 41.667969 4.015625 41.433594 3.597656 40.972656 L 3.601562 40.972656 C 3.238281 40.570312 3.0625 40.074219 3.0625 39.578125 C 3.066406 39 3.296875 38.433594 3.765625 38.015625 L 36.117188 9.097656 C 36.515625 8.738281 37.015625 8.558594 37.515625 8.558594 C 38.019531 8.558594 38.515625 8.734375 38.917969 9.089844 L 71.457031 38.015625 C 71.921875 38.429688 72.15625 38.996094 72.160156 39.574219 C 72.160156 40.074219 71.984375 40.570312 71.625 40.972656 C 71.214844 41.433594 70.640625 41.667969 70.058594 41.667969 L 70.058594 42.726562 C 70.925781 42.726562 71.796875 42.371094 72.417969 41.675781 L 72.417969 41.671875 C 72.953125 41.074219 73.222656 40.320312 73.21875 39.574219 C 73.222656 38.710938 72.863281 37.84375 72.164062 37.226562 L 39.625 8.300781 L 39.621094 8.300781 C 39.023438 7.769531 38.265625 7.5 37.515625 7.503906 C 36.761719 7.5 36.003906 7.773438 35.40625 8.3125 L 35.410156 8.308594 L 3.058594 37.226562 C 2.359375 37.851562 2 38.714844 2.003906 39.578125 C 2 40.324219 2.269531 41.078125 2.808594 41.679688 C 3.433594 42.371094 4.300781 42.726562 5.164062 42.726562 C 5.914062 42.726562 6.671875 42.457031 7.277344 41.921875 L 37.523438 14.878906 L 67.953125 41.925781 C 68.554688 42.464844 69.3125 42.726562 70.058594 42.726562 L 70.058594 42.199219 "/>
</g>
<path style=" stroke:none;fill-rule:nonzero;fill:rgb(100%,100%,100%);fill-opacity:1;" d="M 45.503906 64.710938 L 29.722656 64.710938 L 29.722656 40.894531 L 45.503906 40.894531 Z M 37.71875 17.253906 L 10.335938 41.289062 L 10.316406 41.289062 L 10.316406 66.96875 L 64.90625 66.96875 L 64.90625 41.074219 L 37.71875 17.253906 "/>
<g clip-path="url(#clip2)" clip-rule="nonzero">
<path style=" stroke:none;fill-rule:nonzero;fill:rgb(95.289612%,30.589294%,0%);fill-opacity:1;" d="M 45.503906 64.710938 L 45.503906 64.183594 L 30.25 64.183594 L 30.25 41.425781 L 44.972656 41.425781 L 44.972656 64.710938 L 45.503906 64.710938 L 45.503906 64.183594 L 45.503906 64.710938 L 46.035156 64.710938 L 46.035156 40.894531 C 46.035156 40.753906 45.976562 40.621094 45.878906 40.519531 C 45.78125 40.421875 45.644531 40.367188 45.503906 40.367188 L 29.722656 40.367188 C 29.582031 40.367188 29.445312 40.421875 29.34375 40.519531 C 29.246094 40.621094 29.191406 40.753906 29.191406 40.894531 L 29.191406 64.710938 C 29.191406 64.851562 29.246094 64.988281 29.34375 65.085938 C 29.445312 65.183594 29.582031 65.238281 29.722656 65.238281 L 45.503906 65.238281 C 45.644531 65.238281 45.78125 65.183594 45.878906 65.085938 C 45.976562 64.988281 46.035156 64.851562 46.035156 64.710938 Z M 37.71875 17.253906 L 37.367188 16.859375 L 9.988281 40.894531 L 10.335938 41.289062 L 10.335938 40.761719 L 10.316406 40.761719 C 10.179688 40.761719 10.042969 40.816406 9.941406 40.914062 C 9.84375 41.015625 9.785156 41.152344 9.785156 41.289062 L 9.785156 66.96875 C 9.785156 67.109375 9.84375 67.246094 9.941406 67.34375 C 10.042969 67.441406 10.179688 67.496094 10.316406 67.496094 L 64.90625 67.496094 C 65.046875 67.496094 65.183594 67.441406 65.28125 67.34375 C 65.378906 67.246094 65.4375 67.109375 65.4375 66.96875 L 65.4375 41.074219 C 65.4375 40.921875 65.371094 40.777344 65.257812 40.675781 L 38.070312 16.859375 C 37.867188 16.683594 37.570312 16.683594 37.367188 16.859375 L 37.71875 17.253906 L 37.367188 17.652344 L 64.375 41.3125 L 64.375 66.4375 L 10.847656 66.4375 L 10.847656 41.289062 L 10.316406 41.289062 L 10.316406 41.820312 L 10.335938 41.820312 C 10.464844 41.820312 10.589844 41.769531 10.6875 41.6875 L 38.070312 17.652344 L 37.71875 17.253906 L 37.367188 17.652344 L 37.71875 17.253906 "/>
</g>
</g>
</svg>
