<?xml version="1.0" encoding="UTF-8"?>
<svg xmlns="http://www.w3.org/2000/svg" xmlns:xlink="http://www.w3.org/1999/xlink" width="75pt" height="74.999997pt" viewBox="0 0 75 74.999997" version="1.2">
<defs>
<clipPath id="clip1">
  <path d="M 9 42 L 68.761719 42 L 68.761719 69 L 9 69 Z M 9 42 "/>
</clipPath>
<clipPath id="clip2">
  <path d="M 38 6 L 68.761719 6 L 68.761719 8 L 38 8 Z M 38 6 "/>
</clipPath>
<clipPath id="clip3">
  <path d="M 51 40 L 68.761719 40 L 68.761719 42 L 51 42 Z M 51 40 "/>
</clipPath>
<clipPath id="clip4">
  <path d="M 6.511719 42 L 8 42 L 8 63 L 6.511719 63 Z M 6.511719 42 "/>
</clipPath>
</defs>
<g id="surface1">
<path style=" stroke:none;fill-rule:nonzero;fill:rgb(95.289612%,30.589294%,0%);fill-opacity:1;" d="M 11.179688 7.03125 C 10.984375 7.03125 10.828125 7.191406 10.828125 7.382812 L 10.828125 15.574219 C 10.828125 15.765625 10.984375 15.925781 11.179688 15.925781 L 25.339844 15.925781 C 25.535156 15.925781 25.695312 15.765625 25.695312 15.574219 L 25.695312 7.03125 Z M 25.339844 16.957031 L 11.179688 16.957031 C 10.414062 16.957031 9.789062 16.335938 9.789062 15.574219 L 9.789062 7.382812 C 9.789062 6.621094 10.414062 6 11.179688 6 L 26.734375 6 L 26.734375 15.574219 C 26.734375 16.335938 26.109375 16.957031 25.339844 16.957031 "/>
<path style=" stroke:none;fill-rule:nonzero;fill:rgb(95.289612%,30.589294%,0%);fill-opacity:1;" d="M 19.660156 14.195312 L 16.867188 14.195312 C 16.578125 14.195312 16.347656 13.964844 16.347656 13.675781 C 16.347656 13.394531 16.578125 13.160156 16.867188 13.160156 L 19.660156 13.160156 C 19.941406 13.160156 20.175781 13.394531 20.175781 13.675781 C 20.175781 13.964844 19.941406 14.195312 19.660156 14.195312 "/>
<path style=" stroke:none;fill-rule:nonzero;fill:rgb(95.289612%,30.589294%,0%);fill-opacity:1;" d="M 47.546875 25.753906 L 66.050781 25.753906 L 60.632812 19.996094 C 60.546875 19.898438 60.492188 19.773438 60.492188 19.640625 L 60.492188 7.03125 L 53.101562 7.03125 L 53.101562 19.640625 C 53.101562 19.773438 53.050781 19.898438 52.964844 19.996094 Z M 67.246094 26.785156 L 46.351562 26.785156 C 46.148438 26.785156 45.960938 26.664062 45.878906 26.472656 C 45.796875 26.285156 45.835938 26.066406 45.976562 25.914062 L 52.0625 19.4375 L 52.0625 6.515625 C 52.0625 6.230469 52.296875 6 52.582031 6 L 61.011719 6 C 61.300781 6 61.53125 6.230469 61.53125 6.515625 L 61.53125 19.4375 L 67.621094 25.914062 C 67.761719 26.066406 67.804688 26.285156 67.71875 26.472656 C 67.636719 26.664062 67.453125 26.785156 67.246094 26.785156 "/>
<path style=" stroke:none;fill-rule:nonzero;fill:rgb(95.289612%,30.589294%,0%);fill-opacity:1;" d="M 13.628906 33.382812 C 13.339844 33.382812 13.109375 33.148438 13.109375 32.863281 L 13.109375 26.085938 C 13.109375 25.800781 13.339844 25.570312 13.628906 25.570312 C 13.914062 25.570312 14.148438 25.800781 14.148438 26.085938 L 14.148438 32.863281 C 14.148438 33.148438 13.914062 33.382812 13.628906 33.382812 "/>
<path style=" stroke:none;fill-rule:nonzero;fill:rgb(95.289612%,30.589294%,0%);fill-opacity:1;" d="M 11.75 35.457031 L 13.628906 37.328125 L 15.503906 35.457031 L 13.628906 33.589844 Z M 13.628906 38.574219 C 13.492188 38.574219 13.355469 38.519531 13.261719 38.425781 L 10.652344 35.824219 C 10.449219 35.625 10.449219 35.296875 10.652344 35.09375 L 13.261719 32.496094 C 13.457031 32.304688 13.796875 32.304688 13.992188 32.496094 L 16.601562 35.09375 C 16.804688 35.296875 16.804688 35.625 16.601562 35.824219 L 13.992188 38.425781 C 13.898438 38.519531 13.765625 38.574219 13.628906 38.574219 "/>
<path style=" stroke:none;fill-rule:nonzero;fill:rgb(95.289612%,30.589294%,0%);fill-opacity:1;" d="M 30.304688 33.382812 C 30.015625 33.382812 29.785156 33.148438 29.785156 32.863281 L 29.785156 26.085938 C 29.785156 25.800781 30.015625 25.570312 30.304688 25.570312 C 30.589844 25.570312 30.824219 25.800781 30.824219 26.085938 L 30.824219 32.863281 C 30.824219 33.148438 30.589844 33.382812 30.304688 33.382812 "/>
<path style=" stroke:none;fill-rule:nonzero;fill:rgb(95.289612%,30.589294%,0%);fill-opacity:1;" d="M 28.429688 35.457031 L 30.304688 37.328125 L 32.179688 35.457031 L 30.304688 33.589844 Z M 30.304688 38.574219 C 30.167969 38.574219 30.035156 38.519531 29.9375 38.425781 L 27.324219 35.824219 C 27.125 35.625 27.125 35.296875 27.324219 35.09375 L 29.9375 32.496094 C 30.128906 32.304688 30.476562 32.304688 30.667969 32.496094 L 33.28125 35.09375 C 33.480469 35.296875 33.480469 35.625 33.28125 35.824219 L 30.667969 38.425781 C 30.574219 38.519531 30.441406 38.574219 30.304688 38.574219 "/>
<path style=" stroke:none;fill-rule:nonzero;fill:rgb(95.289612%,30.589294%,0%);fill-opacity:1;" d="M 21.964844 33.382812 C 21.679688 33.382812 21.445312 33.148438 21.445312 32.863281 L 21.445312 26.085938 C 21.445312 25.800781 21.679688 25.570312 21.964844 25.570312 C 22.253906 25.570312 22.484375 25.800781 22.484375 26.085938 L 22.484375 32.863281 C 22.484375 33.148438 22.253906 33.382812 21.964844 33.382812 "/>
<path style=" stroke:none;fill-rule:nonzero;fill:rgb(95.289612%,30.589294%,0%);fill-opacity:1;" d="M 20.089844 35.457031 L 21.964844 37.328125 L 23.839844 35.457031 L 21.964844 33.589844 Z M 21.964844 38.574219 C 21.828125 38.574219 21.695312 38.519531 21.601562 38.425781 L 18.988281 35.824219 C 18.789062 35.625 18.789062 35.296875 18.988281 35.09375 L 21.601562 32.496094 C 21.695312 32.402344 21.828125 32.34375 21.964844 32.34375 C 22.101562 32.34375 22.234375 32.402344 22.332031 32.496094 L 24.941406 35.09375 C 25.144531 35.296875 25.144531 35.625 24.941406 35.824219 L 22.332031 38.425781 C 22.234375 38.519531 22.101562 38.574219 21.964844 38.574219 "/>
<path style=" stroke:none;fill-rule:nonzero;fill:rgb(95.289612%,30.589294%,0%);fill-opacity:1;" d="M 34.382812 26.601562 L 10.308594 26.601562 C 10.019531 26.601562 9.789062 26.371094 9.789062 26.085938 C 9.789062 25.800781 10.019531 25.570312 10.308594 25.570312 L 34.382812 25.570312 C 34.667969 25.570312 34.902344 25.800781 34.902344 26.085938 C 34.902344 26.371094 34.667969 26.601562 34.382812 26.601562 "/>
<g clip-path="url(#clip1)" clip-rule="nonzero">
<path style=" stroke:none;fill-rule:nonzero;fill:rgb(95.289612%,30.589294%,0%);fill-opacity:1;" d="M 10.828125 67.96875 L 67.53125 67.96875 L 67.53125 43.953125 L 10.828125 43.953125 Z M 68.050781 69 L 10.308594 69 C 10.019531 69 9.789062 68.769531 9.789062 68.484375 L 9.789062 43.4375 C 9.789062 43.152344 10.019531 42.921875 10.308594 42.921875 L 68.050781 42.921875 C 68.335938 42.921875 68.570312 43.152344 68.570312 43.4375 L 68.570312 68.484375 C 68.570312 68.769531 68.335938 69 68.050781 69 "/>
</g>
<path style=" stroke:none;fill-rule:nonzero;fill:rgb(95.289612%,30.589294%,0%);fill-opacity:1;" d="M 28.734375 69 C 28.449219 69 28.214844 68.769531 28.214844 68.484375 L 28.214844 43.4375 C 28.214844 43.152344 28.449219 42.921875 28.734375 42.921875 C 29.019531 42.921875 29.25 43.152344 29.25 43.4375 L 29.25 68.484375 C 29.25 68.769531 29.019531 69 28.734375 69 "/>
<path style=" stroke:none;fill-rule:nonzero;fill:rgb(95.289612%,30.589294%,0%);fill-opacity:1;" d="M 28.734375 52.28125 L 10.308594 52.28125 C 10.019531 52.28125 9.789062 52.050781 9.789062 51.765625 C 9.789062 51.480469 10.019531 51.25 10.308594 51.25 L 28.734375 51.25 C 29.019531 51.25 29.25 51.480469 29.25 51.765625 C 29.25 52.050781 29.019531 52.28125 28.734375 52.28125 "/>
<path style=" stroke:none;fill-rule:nonzero;fill:rgb(95.289612%,30.589294%,0%);fill-opacity:1;" d="M 28.734375 60.671875 L 10.308594 60.671875 C 10.019531 60.671875 9.789062 60.441406 9.789062 60.15625 C 9.789062 59.871094 10.019531 59.640625 10.308594 59.640625 L 28.734375 59.640625 C 29.019531 59.640625 29.25 59.871094 29.25 60.15625 C 29.25 60.441406 29.019531 60.671875 28.734375 60.671875 "/>
<path style=" stroke:none;fill-rule:nonzero;fill:rgb(95.289612%,30.589294%,0%);fill-opacity:1;" d="M 20.714844 47.117188 L 18.328125 47.117188 C 18.042969 47.117188 17.8125 46.886719 17.8125 46.601562 C 17.8125 46.316406 18.042969 46.085938 18.328125 46.085938 L 20.714844 46.085938 C 21.003906 46.085938 21.234375 46.316406 21.234375 46.601562 C 21.234375 46.886719 21.003906 47.117188 20.714844 47.117188 "/>
<path style=" stroke:none;fill-rule:nonzero;fill:rgb(95.289612%,30.589294%,0%);fill-opacity:1;" d="M 20.714844 55.433594 L 18.328125 55.433594 C 18.042969 55.433594 17.8125 55.203125 17.8125 54.917969 C 17.8125 54.628906 18.042969 54.398438 18.328125 54.398438 L 20.714844 54.398438 C 21.003906 54.398438 21.234375 54.628906 21.234375 54.917969 C 21.234375 55.203125 21.003906 55.433594 20.714844 55.433594 "/>
<path style=" stroke:none;fill-rule:nonzero;fill:rgb(95.289612%,30.589294%,0%);fill-opacity:1;" d="M 20.714844 63.542969 L 18.328125 63.542969 C 18.042969 63.542969 17.8125 63.308594 17.8125 63.023438 C 17.8125 62.738281 18.042969 62.507812 18.328125 62.507812 L 20.714844 62.507812 C 21.003906 62.507812 21.234375 62.738281 21.234375 63.023438 C 21.234375 63.308594 21.003906 63.542969 20.714844 63.542969 "/>
<path style=" stroke:none;fill-rule:nonzero;fill:rgb(95.289612%,30.589294%,0%);fill-opacity:1;" d="M 47.160156 69 C 46.871094 69 46.640625 68.769531 46.640625 68.484375 L 46.640625 43.4375 C 46.640625 43.152344 46.871094 42.921875 47.160156 42.921875 C 47.449219 42.921875 47.679688 43.152344 47.679688 43.4375 L 47.679688 68.484375 C 47.679688 68.769531 47.449219 69 47.160156 69 "/>
<path style=" stroke:none;fill-rule:nonzero;fill:rgb(95.289612%,30.589294%,0%);fill-opacity:1;" d="M 47.160156 52.28125 L 28.734375 52.28125 C 28.449219 52.28125 28.214844 52.050781 28.214844 51.765625 C 28.214844 51.480469 28.449219 51.25 28.734375 51.25 L 47.160156 51.25 C 47.449219 51.25 47.679688 51.480469 47.679688 51.765625 C 47.679688 52.050781 47.449219 52.28125 47.160156 52.28125 "/>
<path style=" stroke:none;fill-rule:nonzero;fill:rgb(95.289612%,30.589294%,0%);fill-opacity:1;" d="M 47.160156 60.671875 L 28.734375 60.671875 C 28.449219 60.671875 28.214844 60.441406 28.214844 60.15625 C 28.214844 59.871094 28.449219 59.640625 28.734375 59.640625 L 47.160156 59.640625 C 47.449219 59.640625 47.679688 59.871094 47.679688 60.15625 C 47.679688 60.441406 47.449219 60.671875 47.160156 60.671875 "/>
<path style=" stroke:none;fill-rule:nonzero;fill:rgb(95.289612%,30.589294%,0%);fill-opacity:1;" d="M 39.140625 47.117188 L 36.753906 47.117188 C 36.464844 47.117188 36.234375 46.886719 36.234375 46.601562 C 36.234375 46.316406 36.464844 46.085938 36.753906 46.085938 L 39.140625 46.085938 C 39.425781 46.085938 39.660156 46.316406 39.660156 46.601562 C 39.660156 46.886719 39.425781 47.117188 39.140625 47.117188 "/>
<path style=" stroke:none;fill-rule:nonzero;fill:rgb(95.289612%,30.589294%,0%);fill-opacity:1;" d="M 39.140625 55.433594 L 36.753906 55.433594 C 36.464844 55.433594 36.234375 55.203125 36.234375 54.917969 C 36.234375 54.628906 36.464844 54.398438 36.753906 54.398438 L 39.140625 54.398438 C 39.425781 54.398438 39.660156 54.628906 39.660156 54.917969 C 39.660156 55.203125 39.425781 55.433594 39.140625 55.433594 "/>
<path style=" stroke:none;fill-rule:nonzero;fill:rgb(95.289612%,30.589294%,0%);fill-opacity:1;" d="M 39.140625 63.542969 L 36.753906 63.542969 C 36.464844 63.542969 36.234375 63.308594 36.234375 63.023438 C 36.234375 62.738281 36.464844 62.507812 36.753906 62.507812 L 39.140625 62.507812 C 39.425781 62.507812 39.660156 62.738281 39.660156 63.023438 C 39.660156 63.308594 39.425781 63.542969 39.140625 63.542969 "/>
<path style=" stroke:none;fill-rule:nonzero;fill:rgb(95.289612%,30.589294%,0%);fill-opacity:1;" d="M 59.1875 47.117188 L 56.796875 47.117188 C 56.511719 47.117188 56.277344 46.886719 56.277344 46.601562 C 56.277344 46.316406 56.511719 46.085938 56.796875 46.085938 L 59.1875 46.085938 C 59.476562 46.085938 59.707031 46.316406 59.707031 46.601562 C 59.707031 46.886719 59.476562 47.117188 59.1875 47.117188 "/>
<path style=" stroke:none;fill-rule:nonzero;fill:rgb(95.289612%,30.589294%,0%);fill-opacity:1;" d="M 26.734375 7.03125 L 26.734375 15.574219 C 26.734375 15.765625 26.890625 15.925781 27.085938 15.925781 L 41.246094 15.925781 C 41.441406 15.925781 41.597656 15.765625 41.597656 15.574219 L 41.597656 7.382812 C 41.597656 7.191406 41.441406 7.03125 41.246094 7.03125 Z M 41.246094 16.957031 L 27.085938 16.957031 C 26.316406 16.957031 25.695312 16.335938 25.695312 15.574219 L 25.695312 6 L 41.246094 6 C 42.011719 6 42.636719 6.621094 42.636719 7.382812 L 42.636719 15.574219 C 42.636719 16.335938 42.011719 16.957031 41.246094 16.957031 "/>
<path style=" stroke:none;fill-rule:nonzero;fill:rgb(95.289612%,30.589294%,0%);fill-opacity:1;" d="M 35.5625 14.195312 L 32.769531 14.195312 C 32.484375 14.195312 32.25 13.964844 32.25 13.675781 C 32.25 13.394531 32.484375 13.160156 32.769531 13.160156 L 35.5625 13.160156 C 35.847656 13.160156 36.078125 13.394531 36.078125 13.675781 C 36.078125 13.964844 35.847656 14.195312 35.5625 14.195312 "/>
<g clip-path="url(#clip2)" clip-rule="nonzero">
<path style=" stroke:none;fill-rule:nonzero;fill:rgb(95.289612%,30.589294%,0%);fill-opacity:1;" d="M 68.050781 7.03125 L 39.140625 7.03125 C 38.855469 7.03125 38.621094 6.804688 38.621094 6.515625 C 38.621094 6.230469 38.855469 6 39.140625 6 L 68.050781 6 C 68.335938 6 68.570312 6.230469 68.570312 6.515625 C 68.570312 6.804688 68.335938 7.03125 68.050781 7.03125 "/>
</g>
<g clip-path="url(#clip3)" clip-rule="nonzero">
<path style=" stroke:none;fill-rule:nonzero;fill:rgb(95.289612%,30.589294%,0%);fill-opacity:1;" d="M 68.050781 41.214844 L 51.628906 41.214844 C 51.34375 41.214844 51.109375 40.984375 51.109375 40.699219 C 51.109375 40.417969 51.34375 40.183594 51.628906 40.183594 L 68.050781 40.183594 C 68.335938 40.183594 68.570312 40.417969 68.570312 40.699219 C 68.570312 40.984375 68.335938 41.214844 68.050781 41.214844 "/>
</g>
<g clip-path="url(#clip4)" clip-rule="nonzero">
<path style=" stroke:none;fill-rule:nonzero;fill:rgb(95.289612%,30.589294%,0%);fill-opacity:1;" d="M 7.328125 62.078125 C 7.042969 62.078125 6.808594 61.847656 6.808594 61.5625 L 6.808594 43.4375 C 6.808594 43.152344 7.042969 42.921875 7.328125 42.921875 C 7.613281 42.921875 7.84375 43.152344 7.84375 43.4375 L 7.84375 61.5625 C 7.84375 61.847656 7.613281 62.078125 7.328125 62.078125 "/>
</g>
</g>
</svg>
