<?xml version="1.0" encoding="UTF-8"?>
<svg xmlns="http://www.w3.org/2000/svg" xmlns:xlink="http://www.w3.org/1999/xlink" width="75pt" height="74.999997pt" viewBox="0 0 75 74.999997" version="1.2">
<defs>
<clipPath id="clip1">
  <path d="M 15 21 L 60 21 L 60 69.65625 L 15 69.65625 Z M 15 21 "/>
</clipPath>
<clipPath id="clip2">
  <path d="M 31 5.15625 L 44 5.15625 L 44 13 L 31 13 Z M 31 5.15625 "/>
</clipPath>
<clipPath id="clip3">
  <path d="M 7.5 30 L 23 30 L 23 45 L 7.5 45 Z M 7.5 30 "/>
</clipPath>
<clipPath id="clip4">
  <path d="M 52 30 L 67.5 30 L 67.5 45 L 52 45 Z M 52 30 "/>
</clipPath>
</defs>
<g id="surface1">
<path style=" stroke:none;fill-rule:nonzero;fill:rgb(95.289612%,30.589294%,0%);fill-opacity:1;" d="M 34.085938 15.246094 L 35.429688 15.246094 L 35.429688 19.496094 L 34.085938 19.496094 Z M 34.085938 15.246094 "/>
<path style=" stroke:none;fill-rule:nonzero;fill:rgb(95.289612%,30.589294%,0%);fill-opacity:1;" d="M 36.867188 13.371094 L 38.210938 13.371094 L 38.210938 19.496094 L 36.867188 19.496094 Z M 36.867188 13.371094 "/>
<path style=" stroke:none;fill-rule:nonzero;fill:rgb(95.289612%,30.589294%,0%);fill-opacity:1;" d="M 39.644531 11.277344 L 40.988281 11.277344 L 40.988281 19.496094 L 39.644531 19.496094 Z M 39.644531 11.277344 "/>
<path style=" stroke:none;fill-rule:nonzero;fill:rgb(95.289612%,30.589294%,0%);fill-opacity:1;" d="M 29.347656 17.316406 L 28.847656 16.074219 C 22.910156 18.445312 18.15625 23.203125 15.796875 29.128906 L 17.046875 29.625 C 19.269531 24.039062 23.753906 19.550781 29.347656 17.316406 Z M 29.347656 17.316406 "/>
<g clip-path="url(#clip1)" clip-rule="nonzero">
<path style=" stroke:none;fill-rule:nonzero;fill:rgb(95.289612%,30.589294%,0%);fill-opacity:1;" d="M 59.257812 46.355469 L 58.011719 45.855469 C 56.714844 49.101562 54.679688 51.960938 52.058594 54.246094 L 51.835938 53.027344 L 45.53125 50.761719 L 44.542969 50.40625 L 41.101562 46.796875 L 41.101562 45.730469 C 43.71875 44.605469 45.660156 42.214844 46.148438 39.332031 C 47.328125 39.082031 48.214844 38.03125 48.214844 36.78125 C 48.214844 35.789062 47.660156 34.925781 46.84375 34.484375 C 48.039062 32.152344 48.285156 30.117188 47.574219 28.425781 C 46.648438 26.230469 44.398438 25.34375 43.539062 25.078125 C 41.714844 21.3125 35.355469 21.976562 35.078125 22.007812 L 35.035156 22.011719 C 31.832031 22.597656 29.628906 24 28.492188 26.191406 C 26.984375 29.078125 27.753906 32.542969 28.347656 34.359375 C 27.386719 34.746094 26.707031 35.683594 26.707031 36.78125 C 26.707031 38.085938 27.675781 39.171875 28.933594 39.363281 C 29.429688 42.230469 31.367188 44.613281 33.972656 45.730469 L 33.972656 46.796875 L 30.535156 50.40625 L 29.546875 50.761719 L 23.238281 53.027344 L 23.015625 54.246094 C 20.386719 51.953125 18.34375 49.078125 17.046875 45.816406 L 15.796875 46.3125 C 17.273438 50.015625 19.652344 53.253906 22.738281 55.765625 L 22.679688 56.070312 L 20.1875 69.652344 L 54.886719 69.652344 L 52.339844 55.765625 C 55.410156 53.261719 57.785156 50.042969 59.257812 46.355469 Z M 28.808594 37.941406 C 28.363281 37.742188 28.050781 37.296875 28.050781 36.78125 C 28.050781 36.265625 28.363281 35.816406 28.808594 35.621094 Z M 41.726562 49.394531 L 43.269531 51.015625 L 43.179688 51.34375 L 41.800781 56.414062 L 40.789062 55.558594 L 39.714844 54.65625 L 38.390625 53.542969 L 38.519531 53.316406 L 39.757812 51.078125 L 40.183594 50.3125 L 40.863281 49.085938 L 41.074219 48.710938 L 41.101562 48.742188 Z M 43.171875 56.496094 L 43.109375 58.980469 L 43.074219 60.371094 L 43.027344 62.292969 L 40.863281 63.988281 L 40.175781 60.882812 L 39.921875 59.75 L 39.960938 59.558594 L 40.480469 57.054688 L 42.546875 58.792969 Z M 37.628906 54.65625 L 39.3125 56.070312 L 38.6875 59.085938 L 36.386719 59.085938 L 35.761719 56.070312 L 37.445312 54.65625 Z M 36.425781 50.3125 L 35.683594 48.972656 L 35.316406 48.3125 L 35.316406 46.179688 C 35.964844 46.339844 36.644531 46.425781 37.34375 46.425781 L 37.730469 46.425781 C 38.429688 46.425781 39.109375 46.339844 39.757812 46.179688 L 39.757812 48.3125 L 39.394531 48.972656 L 38.648438 50.3125 L 37.539062 52.316406 Z M 46.871094 36.78125 C 46.871094 37.238281 46.628906 37.636719 46.265625 37.863281 L 46.265625 35.699219 C 46.628906 35.925781 46.871094 36.324219 46.871094 36.78125 Z M 29.4375 33.296875 C 29.121094 32.152344 28.835938 30.574219 29.023438 29.015625 C 29.113281 28.257812 29.316406 27.503906 29.683594 26.804688 C 30.621094 25.007812 32.492188 23.84375 35.25 23.335938 C 35.636719 23.296875 41.222656 22.816406 42.421875 25.882812 L 42.554688 26.210938 L 42.902344 26.289062 C 42.925781 26.296875 45.480469 26.902344 46.335938 28.953125 C 46.746094 29.925781 46.71875 31.089844 46.265625 32.425781 C 46.125 32.839844 45.945312 33.273438 45.722656 33.71875 C 45.507812 33.183594 45.238281 32.558594 44.921875 31.945312 C 44.636719 31.386719 44.316406 30.832031 43.96875 30.355469 C 43.496094 29.710938 42.976562 29.207031 42.429688 29.015625 C 42.421875 29.015625 42.414062 29.011719 42.40625 29.007812 L 41.910156 28.84375 L 41.796875 29.015625 L 41.628906 29.285156 C 41.621094 29.296875 41.269531 29.835938 40.601562 30.355469 C 39.902344 30.898438 38.859375 31.421875 37.496094 31.3125 C 37.289062 31.292969 32.542969 30.851562 30.152344 32.613281 C 30.046875 32.691406 29.945312 32.773438 29.847656 32.859375 C 29.695312 33 29.558594 33.144531 29.4375 33.296875 Z M 30.273438 39.214844 C 30.191406 38.792969 30.152344 38.359375 30.152344 37.914062 L 30.152344 34.855469 C 30.191406 34.683594 30.25 34.519531 30.335938 34.367188 C 30.4375 34.179688 30.574219 34.011719 30.75 33.851562 C 32.261719 32.484375 36.039062 32.515625 37.375 32.648438 C 39.96875 32.855469 41.648438 31.355469 42.363281 30.523438 C 43.082031 31.171875 43.9375 32.875 44.539062 34.390625 C 44.683594 34.753906 44.8125 35.105469 44.921875 35.429688 L 44.921875 37.914062 C 44.921875 38.375 44.878906 38.828125 44.792969 39.265625 C 44.378906 41.425781 42.992188 43.242188 41.101562 44.246094 C 40.679688 44.472656 40.230469 44.65625 39.757812 44.792969 C 39.113281 44.980469 38.433594 45.082031 37.730469 45.082031 L 37.34375 45.082031 C 36.640625 45.082031 35.957031 44.980469 35.316406 44.792969 C 34.847656 44.65625 34.398438 44.472656 33.972656 44.246094 C 32.070312 43.234375 30.675781 41.398438 30.273438 39.214844 Z M 33.347656 49.394531 L 33.972656 48.738281 L 34 48.710938 L 34.210938 49.085938 L 34.890625 50.3125 L 35.316406 51.082031 L 36.558594 53.3125 L 36.683594 53.542969 L 35.359375 54.652344 L 34.285156 55.558594 L 33.269531 56.414062 L 31.894531 51.34375 L 31.804688 51.015625 Z M 35.152344 59.75 L 34.902344 60.882812 L 34.210938 63.988281 L 32.046875 62.292969 L 32 60.371094 L 31.964844 58.980469 L 31.902344 56.496094 L 32.527344 58.792969 L 34.59375 57.054688 L 35.113281 59.558594 Z M 34.628906 68.3125 L 21.800781 68.3125 L 23.933594 56.679688 L 24.203125 55.210938 L 24.421875 54.027344 L 30.386719 51.882812 L 30.441406 51.863281 L 30.613281 58.585938 L 30.648438 60.003906 L 30.722656 62.957031 L 30.722656 63.035156 L 33.871094 65.519531 L 35.042969 66.441406 L 37.414062 68.3125 Z M 35.382812 64.90625 L 36.253906 60.996094 C 36.679688 61.019531 37.109375 61.03125 37.539062 61.03125 C 37.96875 61.03125 38.394531 61.019531 38.824219 60.996094 L 39.691406 64.90625 L 37.539062 66.597656 Z M 53.277344 68.3125 L 37.660156 68.3125 L 40.03125 66.441406 L 41.203125 65.519531 L 44.351562 63.035156 L 44.355469 62.957031 L 44.429688 60 L 44.464844 58.585938 L 44.632812 51.863281 L 44.6875 51.882812 L 50.652344 54.027344 L 50.871094 55.210938 L 51.140625 56.679688 Z M 53.277344 68.3125 "/>
</g>
<path style=" stroke:none;fill-rule:nonzero;fill:rgb(95.289612%,30.589294%,0%);fill-opacity:1;" d="M 57.996094 29.542969 L 59.242188 29.042969 C 56.875 23.160156 52.132812 18.433594 46.226562 16.074219 L 45.726562 17.316406 C 51.292969 19.539062 55.761719 23.996094 57.996094 29.542969 Z M 57.996094 29.542969 "/>
<path style=" stroke:none;fill-rule:nonzero;fill:rgb(95.289612%,30.589294%,0%);fill-opacity:1;" d="M 44.015625 64.480469 L 49.433594 64.480469 L 49.433594 65.820312 L 44.015625 65.820312 Z M 44.015625 64.480469 "/>
<g clip-path="url(#clip2)" clip-rule="nonzero">
<path style=" stroke:none;fill-rule:nonzero;fill:rgb(95.289612%,30.589294%,0%);fill-opacity:1;" d="M 36.9375 10.097656 L 39.023438 10.097656 L 42.207031 7.300781 L 42.222656 8.710938 L 43.566406 8.699219 L 43.53125 5.15625 L 39.996094 5.171875 L 40.003906 6.511719 L 41.074219 6.507812 L 38.515625 8.757812 L 36.378906 8.757812 L 34.339844 10.792969 L 31.871094 10.792969 L 31.871094 12.132812 L 34.894531 12.132812 Z M 36.9375 10.097656 "/>
</g>
<g clip-path="url(#clip3)" clip-rule="nonzero">
<path style=" stroke:none;fill-rule:nonzero;fill:rgb(95.289612%,30.589294%,0%);fill-opacity:1;" d="M 22.113281 37.566406 C 22.113281 33.5625 18.847656 30.304688 14.832031 30.304688 C 10.816406 30.304688 7.550781 33.5625 7.550781 37.566406 C 7.550781 41.566406 10.816406 44.824219 14.832031 44.824219 C 18.847656 44.824219 22.113281 41.566406 22.113281 37.566406 Z M 14.832031 43.484375 C 11.558594 43.484375 8.894531 40.828125 8.894531 37.566406 C 8.894531 34.300781 11.558594 31.644531 14.832031 31.644531 C 18.105469 31.644531 20.769531 34.300781 20.769531 37.566406 C 20.769531 40.828125 18.105469 43.484375 14.832031 43.484375 Z M 14.832031 43.484375 "/>
</g>
<path style=" stroke:none;fill-rule:nonzero;fill:rgb(95.289612%,30.589294%,0%);fill-opacity:1;" d="M 15.019531 37.078125 C 14.074219 36.800781 14.058594 36.59375 14.039062 36.375 C 14 35.9375 14.269531 35.550781 14.664062 35.476562 C 14.683594 35.472656 14.703125 35.46875 14.726562 35.464844 C 14.984375 35.433594 15.171875 35.558594 15.257812 35.636719 C 15.417969 35.777344 15.511719 35.984375 15.511719 36.199219 L 15.511719 36.253906 L 16.855469 36.257812 L 16.855469 36.203125 C 16.855469 35.605469 16.601562 35.03125 16.148438 34.632812 C 15.957031 34.460938 15.738281 34.335938 15.503906 34.25 L 15.503906 33.117188 L 14.160156 33.117188 L 14.160156 34.226562 C 13.222656 34.53125 12.605469 35.460938 12.699219 36.496094 C 12.804688 37.667969 13.695312 38.085938 14.640625 38.363281 C 15.613281 38.648438 15.621094 38.941406 15.628906 39.15625 C 15.640625 39.527344 15.421875 39.84375 15.089844 39.941406 C 15.039062 39.957031 14.988281 39.96875 14.9375 39.972656 C 14.679688 40.007812 14.492188 39.882812 14.40625 39.804688 C 14.242188 39.664062 14.148438 39.457031 14.148438 39.242188 L 12.804688 39.242188 C 12.804688 39.84375 13.0625 40.414062 13.515625 40.8125 C 13.707031 40.980469 13.925781 41.109375 14.160156 41.195312 L 14.160156 42.324219 L 15.503906 42.324219 L 15.503906 41.214844 C 16.394531 40.9375 17 40.078125 16.972656 39.117188 C 16.929688 37.636719 15.542969 37.230469 15.019531 37.078125 Z M 15.019531 37.078125 "/>
<g clip-path="url(#clip4)" clip-rule="nonzero">
<path style=" stroke:none;fill-rule:nonzero;fill:rgb(95.289612%,30.589294%,0%);fill-opacity:1;" d="M 60.171875 30.304688 C 56.15625 30.304688 52.886719 33.5625 52.886719 37.566406 C 52.886719 41.566406 56.15625 44.824219 60.171875 44.824219 C 64.183594 44.824219 67.449219 41.566406 67.449219 37.566406 C 67.449219 33.5625 64.183594 30.304688 60.171875 30.304688 Z M 60.171875 43.484375 C 56.894531 43.484375 54.230469 40.828125 54.230469 37.566406 C 54.230469 34.300781 56.894531 31.644531 60.171875 31.644531 C 63.445312 31.644531 66.105469 34.300781 66.105469 37.566406 C 66.105469 40.828125 63.445312 43.484375 60.171875 43.484375 Z M 60.171875 43.484375 "/>
</g>
<path style=" stroke:none;fill-rule:nonzero;fill:rgb(95.289612%,30.589294%,0%);fill-opacity:1;" d="M 59.554688 37.558594 L 56.6875 39.484375 L 57.4375 40.59375 L 60.894531 38.269531 L 60.890625 38.265625 L 60.894531 38.265625 L 60.894531 32.992188 L 59.554688 32.992188 Z M 59.554688 37.558594 "/>
</g>
</svg>
